<svg xmlns="http://www.w3.org/2000/svg" xmlns:xlink="http://www.w3.org/1999/xlink" viewBox="0 0 11.635 21.302">
  <defs>
    <style>
      .cls-1 {
        fill: #005a61;
      }

      .cls-2 {
        clip-path: url(#clip-path);
      }
    </style>
    <clipPath id="clip-path">
      <rect id="Rectangle_15" data-name="Rectangle 15" class="cls-1" width="11.635" height="21.302"/>
    </clipPath>
  </defs>
  <g id="facebook" transform="translate(-1842.125 -803.94)">
    <g id="Group_7" data-name="Group 7" transform="translate(1842.125 803.94)">
      <g id="Group_6" data-name="Group 6" class="cls-2">
        <path id="Path_18" data-name="Path 18" class="cls-1" d="M11.081,0H8.31c-3.1,0-5.1,2.05-5.1,5.236v2.41H.443A.438.438,0,0,0,0,8.089v3.49a.438.438,0,0,0,.443.443h2.77v8.837a.438.438,0,0,0,.443.443H7.285a.438.438,0,0,0,.443-.443V12.022H10.97a.438.438,0,0,0,.443-.443V8.089a.477.477,0,0,0-.443-.443H7.7V5.6c0-1,.222-1.5,1.524-1.5h1.856a.438.438,0,0,0,.443-.443V.443A.438.438,0,0,0,11.081,0Zm0,0" transform="translate(0 -0.028)"/>
      </g>
    </g>
  </g>
</svg>
