<svg id="Group_220" data-name="Group 220" xmlns="http://www.w3.org/2000/svg" viewBox="0 0 24.1 24.1">
  <defs>
    <style>
      .cls-1 {
        fill: #005a61;
      }
    </style>
  </defs>
  <path id="Path_404" data-name="Path 404" class="cls-1" d="M24,7a7.173,7.173,0,0,0-.6-2.9A6.04,6.04,0,0,0,19.9.6,7.173,7.173,0,0,0,17,0H7A7.173,7.173,0,0,0,4.1.6,6.04,6.04,0,0,0,.6,4.1,7.173,7.173,0,0,0,0,7v5c0,3.3,0,3.7.1,5a7.173,7.173,0,0,0,.6,2.9,6.04,6.04,0,0,0,3.5,3.5A6.71,6.71,0,0,0,7,24c1.3.1,1.7.1,5,.1s3.7,0,5-.1a7.173,7.173,0,0,0,2.9-.6,6.04,6.04,0,0,0,3.5-3.5A7.173,7.173,0,0,0,24,17c.1-1.3.1-1.7.1-5S24,8.3,24,7Zm-2.2,9.9a5.382,5.382,0,0,1-.4,2.2,3.748,3.748,0,0,1-2.3,2.3,5.7,5.7,0,0,1-2.2.4c-1.3.1-1.6.1-4.9.1s-3.6,0-4.9-.1a5.382,5.382,0,0,1-2.2-.4,3.748,3.748,0,0,1-2.3-2.3,5.7,5.7,0,0,1-.4-2.2c-.1-1.3-.1-1.6-.1-4.9s0-3.6.1-4.9a5.381,5.381,0,0,1,.4-2.2A3.748,3.748,0,0,1,4.9,2.6a5.7,5.7,0,0,1,2.2-.4c1.3-.1,1.7-.1,4.9-.1s3.6,0,4.9.1a5.382,5.382,0,0,1,2.2.4,3.748,3.748,0,0,1,2.3,2.3,5.7,5.7,0,0,1,.4,2.2c.1,1.3.1,1.6.1,4.9S21.9,15.6,21.8,16.9Z"/>
  <path id="Path_405" data-name="Path 405" class="cls-1" d="M12,5.8A6.2,6.2,0,1,0,18.2,12,6.231,6.231,0,0,0,12,5.8ZM12,16a4,4,0,1,1,4-4A4.012,4.012,0,0,1,12,16Z"/>
</svg>
