<svg xmlns="http://www.w3.org/2000/svg" width="20.671" height="20.67" viewBox="0 0 20.671 20.67">
  <path id="Path_406" data-name="Path 406" d="M434.954,52.674H417.335a1.526,1.526,0,0,0-1.526,1.526V71.818a1.526,1.526,0,0,0,1.526,1.526h17.619a1.526,1.526,0,0,0,1.526-1.526V54.2A1.526,1.526,0,0,0,434.954,52.674ZM421.97,70.283h-3.107V60.411h3.107Zm-1.554-11.24a1.784,1.784,0,1,1,1.792-1.784A1.759,1.759,0,0,1,420.416,59.043Zm13.01,11.247h-3.107V64.9c0-1.591-.676-2.082-1.549-2.082a1.89,1.89,0,0,0-1.826,2.121v5.352h-3.107V60.419h2.989v1.368h.04a3.39,3.39,0,0,1,2.954-1.645c1.734,0,3.608,1.028,3.608,4.044Z" transform="translate(-415.809 -52.674)" fill="#005a61"/>
</svg>
