<svg xmlns="http://www.w3.org/2000/svg" viewBox="0 0 22.731 18.475">
  <defs>
    <style>
      .cls-1 {
        fill: #005a61;
      }
    </style>
  </defs>
  <g id="twitter" transform="translate(-6.819 -8.947)">
    <path id="Path_35" data-name="Path 35" class="cls-1" d="M82.139,116.875a13.179,13.179,0,0,0,13.269-13.269q0-.3-.014-.6a9.493,9.493,0,0,0,2.327-2.415,9.312,9.312,0,0,1-2.679.734,4.679,4.679,0,0,0,2.05-2.58,9.335,9.335,0,0,1-2.961,1.132,4.668,4.668,0,0,0-7.948,4.253,13.236,13.236,0,0,1-9.612-4.873,4.667,4.667,0,0,0,1.443,6.226A4.626,4.626,0,0,1,75.9,104.9c0,.019,0,.039,0,.059a4.665,4.665,0,0,0,3.742,4.572,4.685,4.685,0,0,1-1.229.164,4.636,4.636,0,0,1-.877-.085,4.667,4.667,0,0,0,4.357,3.239,9.357,9.357,0,0,1-5.792,2,9.578,9.578,0,0,1-1.113-.065,13.177,13.177,0,0,0,7.149,2.1" transform="translate(-68.172 -89.453)"/>
  </g>
</svg>
